<svg viewBox="0 0 32 32" xmlns="http://www.w3.org/2000/svg">
  <defs>
    <!-- Camera body gradient -->
    <linearGradient id="bodyGradient" x1="0%" y1="0%" x2="100%" y2="100%">
      <stop offset="0%" style="stop-color:#2a2a2a"/>
      <stop offset="50%" style="stop-color:#1a1a1a"/>
      <stop offset="100%" style="stop-color:#0f0f0f"/>
    </linearGradient>
    
    <!-- Lens gradient -->
    <radialGradient id="lensGradient" cx="50%" cy="50%" r="50%">
      <stop offset="0%" style="stop-color:#404040"/>
      <stop offset="70%" style="stop-color:#2a2a2a"/>
      <stop offset="100%" style="stop-color:#1a1a1a"/>
    </radialGradient>
    
    <!-- Smart accent -->
    <linearGradient id="smartAccent" x1="0%" y1="0%" x2="100%" y2="0%">
      <stop offset="0%" style="stop-color:#06b6d4"/>
      <stop offset="100%" style="stop-color:#0891b2"/>
    </linearGradient>
  </defs>
  
  <!-- Camera body -->
  <rect x="2" y="10" width="28" height="18" rx="2" fill="url(#bodyGradient)" stroke="#404040" stroke-width="0.3"/>
  
  <!-- Viewfinder hump -->
  <rect x="8" y="6" width="16" height="6" rx="1.5" fill="url(#bodyGradient)" stroke="#404040" stroke-width="0.3"/>
  
  <!-- Main lens mount -->
  <circle cx="16" cy="19" r="8" fill="url(#lensGradient)" stroke="#505050" stroke-width="0.4"/>
  
  <!-- Lens elements (multiple glass elements) -->
  <circle cx="16" cy="19" r="6.5" fill="none" stroke="#606060" stroke-width="0.2"/>
  <circle cx="16" cy="19" r="5" fill="none" stroke="#505050" stroke-width="0.3"/>
  <circle cx="16" cy="19" r="3.5" fill="#000000"/>
  
  <!-- Aperture opening -->
  <circle cx="16" cy="19" r="2.5" fill="#0a0a0a"/>
  
  <!-- Viewfinder -->
  <rect x="12" y="7.5" width="8" height="3" rx="0.5" fill="#000000"/>
  <rect x="13" y="8.5" width="6" height="1" fill="#1a1a1a"/>
  
  <!-- Camera controls -->
  <circle cx="6" cy="13" r="1.2" fill="#333333" stroke="#555555" stroke-width="0.2"/>
  <rect x="24" y="12" width="4" height="2" rx="0.5" fill="#333333"/>
  
  <!-- Smart indicator - LED style -->
  <circle cx="26" cy="8" r="1" fill="url(#smartAccent)" opacity="0.9"/>
  <circle cx="26" cy="8" r="0.5" fill="#ffffff" opacity="0.6"/>
  
  <!-- Brand/model text area -->
  <rect x="18" y="13" width="8" height="1.5" rx="0.3" fill="#1a1a1a"/>
  
  <!-- Lens reflection -->
  <ellipse cx="14" cy="17" rx="1.5" ry="2" fill="#ffffff" opacity="0.08"/>
  
  <!-- Hot shoe -->
  <rect x="14" y="4.5" width="4" height="1.5" rx="0.3" fill="#2a2a2a" stroke="#404040" stroke-width="0.2"/>
</svg>